<?xml version="1.0" encoding="iso-8859-1"?>
<!-- Uploaded to: SVG Repo, www.svgrepo.com, Generator: SVG Repo Mixer Tools -->
<svg height="800px" width="800px" version="1.1" id="Layer_1" xmlns="http://www.w3.org/2000/svg" xmlns:xlink="http://www.w3.org/1999/xlink" 
	 viewBox="0 0 512 512" xml:space="preserve">
<path style="fill:#FF3D2E;" d="M256,0C201.9,57,123.2,65.8,79.4,65.8C59.6,65.8,47,64,47,64s0,92,0,224s209,224,209,224
	s209-92,209-224s0-224,0-224s-12.6,1.8-32.4,1.8C388.8,65.8,310.1,57,256,0L256,0z"/>
<path style="fill:#BF2E22;" d="M320.5,476.9c47.1-29.4,106.9-75.9,132.2-133.4L355,245.7l-77.7-11.1l-84.9,114.2L320.5,476.9z"/>
<polygon style="fill:#FFFFFF;" points="192.4,142.6 355,245.7 192.4,348.8 "/>
</svg>